<?xml version="1.0" standalone="no"?>
<!DOCTYPE svg PUBLIC "-//W3C//DTD SVG 20010904//EN"
 "http://www.w3.org/TR/2001/REC-SVG-20010904/DTD/svg10.dtd">
<svg version="1.0" xmlns="http://www.w3.org/2000/svg"
 width="1024.000000pt" height="1024.000000pt" viewBox="0 0 1024.000000 1024.000000"
 preserveAspectRatio="xMidYMid meet">

<g transform="translate(0.000000,1024.000000) scale(0.100000,-0.100000)"
fill="#4f46e5" stroke="none">
<path d="M1985 8081 c-75 -34 -98 -82 -66 -137 25 -42 26 -45 6 -38 -23 9 -73
-15 -95 -46 -30 -42 -26 -75 15 -107 48 -38 46 -61 -5 -69 -21 -4 -47 -15 -56
-25 -25 -27 -14 -97 25 -157 39 -62 40 -94 2 -121 -16 -12 -33 -21 -39 -21
-13 0 -62 -40 -62 -51 0 -19 77 -8 135 20 33 15 130 70 215 120 l155 92 82 -3
c75 -3 84 -6 112 -32 46 -45 181 -332 238 -508 l25 -78 -45 -102 c-54 -120
-73 -188 -89 -314 -14 -108 -4 -145 63 -234 50 -66 80 -130 125 -268 46 -144
79 -192 129 -192 22 0 15 30 -31 129 -36 79 -40 91 -24 91 19 0 86 -138 126
-261 23 -69 46 -135 53 -146 7 -14 32 -28 68 -38 32 -9 67 -25 78 -35 27 -24
91 -55 178 -86 150 -55 218 -102 287 -204 53 -78 74 -94 167 -130 145 -55 162
-86 96 -181 -49 -72 -62 -111 -63 -191 0 -37 -5 -99 -12 -138 l-12 -71 93
-182 c115 -222 119 -228 195 -284 80 -59 100 -91 100 -162 1 -69 -46 -345 -79
-466 -32 -119 -57 -324 -54 -455 2 -85 -1 -112 -15 -139 -14 -26 -17 -48 -13
-90 3 -31 2 -92 -2 -136 -13 -142 13 -232 85 -295 50 -44 110 -70 162 -70 59
0 82 14 82 50 0 23 -8 33 -40 51 -55 31 -80 74 -80 137 0 42 5 57 28 84 59 68
62 77 62 172 0 101 19 192 61 284 31 69 52 84 143 97 70 10 99 41 91 98 -6 41
-5 44 54 104 34 35 61 69 61 78 0 8 -17 22 -37 30 -65 27 -111 86 -127 160 -3
17 -22 372 -41 790 -19 418 -36 768 -38 779 -2 17 -67 47 -192 86 -55 18 -177
12 -215 -10 -96 -56 -192 -74 -264 -50 -57 18 -70 47 -62 131 5 48 4 75 -4 84
-6 8 -45 21 -86 31 -41 9 -74 21 -74 28 0 6 9 44 20 84 28 101 27 119 -10 127
-45 10 -85 -3 -131 -41 -22 -19 -45 -34 -50 -34 -6 0 -27 17 -48 38 -22 20
-57 53 -80 73 -45 39 -51 68 -30 142 28 101 161 167 339 167 113 0 193 -58
226 -165 21 -71 30 -85 54 -85 30 0 34 50 10 136 -30 106 -23 128 83 235 57
57 88 97 97 124 20 62 47 93 121 141 38 24 69 48 69 52 0 4 15 25 34 45 45 49
95 51 151 7 21 -16 44 -30 51 -30 41 0 59 84 29 128 -9 12 -37 36 -63 54 -26
17 -50 36 -54 41 -3 6 7 21 23 35 25 21 46 26 144 35 63 6 117 8 121 4 3 -3
-1 -16 -10 -29 -22 -31 -20 -45 8 -73 26 -26 118 -57 141 -48 23 8 18 47 -15
120 -16 36 -35 84 -41 107 -16 61 -65 141 -110 179 -21 19 -39 39 -39 46 0 34
-68 138 -103 158 -29 16 -33 16 -51 -3 -26 -25 -79 -1 -158 72 -81 75 -112 82
-158 36 -30 -31 -48 -101 -36 -147 3 -14 9 -36 12 -50 5 -21 3 -25 -14 -25
-22 0 -27 -10 -37 -76 -3 -22 -15 -55 -25 -72 -17 -27 -26 -32 -58 -32 -45 0
-62 14 -62 51 0 42 -40 89 -110 129 -116 68 -124 77 -128 157 -3 44 1 79 8 94
32 61 91 124 155 166 90 59 123 90 141 133 18 43 29 50 79 50 46 0 113 -28
146 -61 l23 -23 -23 -6 c-63 -15 -48 -73 32 -127 47 -31 101 -47 201 -59 50
-6 57 -4 81 21 25 24 27 32 22 84 -12 132 -139 281 -317 371 -72 36 -301 111
-321 105 -36 -12 -61 -56 -57 -104 3 -40 0 -47 -24 -60 -25 -15 -30 -13 -98
22 -84 44 -126 47 -167 13 -67 -56 -88 -61 -233 -59 -177 4 -244 15 -427 74
-83 27 -175 52 -205 57 -29 5 -111 21 -183 35 -203 40 -421 77 -452 77 -15 0
-46 -9 -68 -19z"/>
<path d="M4870 6020 c-40 -10 -60 -33 -60 -70 0 -52 22 -66 112 -74 113 -9
197 -31 296 -77 219 -101 374 -274 455 -507 26 -75 31 -104 34 -212 5 -137 12
-163 54 -180 35 -15 77 3 96 40 29 57 5 300 -41 422 -122 327 -373 557 -691
637 -95 24 -207 33 -255 21z"/>
<path d="M3731 5737 c-8 -10 -3 -21 22 -44 53 -50 110 -83 142 -83 52 0 107
20 103 37 -4 20 -10 23 -130 67 -108 40 -121 42 -137 23z"/>
<path d="M4835 5615 c-47 -46 -19 -116 51 -130 145 -27 252 -91 328 -198 56
-79 85 -158 92 -252 7 -91 19 -121 55 -136 36 -14 70 -2 94 35 14 21 15 37 6
118 -21 185 -66 284 -186 403 -92 93 -164 134 -282 164 -105 27 -128 26 -158
-4z"/>
<path d="M4083 5578 c-30 -14 -29 -24 3 -45 26 -16 125 -25 138 -12 13 12 -6
36 -40 52 -39 19 -69 21 -101 5z"/>
<path d="M4624 5170 c-12 -4 -24 -15 -27 -24 -3 -8 7 -275 23 -593 16 -318 32
-650 35 -738 8 -179 17 -230 45 -245 48 -25 73 -13 231 110 85 66 158 119 163
117 13 -4 13 -5 115 -219 95 -199 108 -215 180 -225 50 -7 140 33 166 74 31
47 22 88 -69 310 -84 208 -94 237 -78 246 4 3 88 -1 187 -8 188 -13 227 -9
245 25 13 25 12 70 -3 96 -11 19 -306 297 -852 804 -336 312 -309 291 -361
270z"/>
</g>
</svg>
